<?xml version="1.0" encoding="iso-8859-1"?>
<!-- Uploaded to: SVG Repo, www.svgrepo.com, Generator: SVG Repo Mixer Tools -->
<svg version="1.1" id="Layer_1" xmlns="http://www.w3.org/2000/svg" xmlns:xlink="http://www.w3.org/1999/xlink" 
	 viewBox="0 0 504.123 504.123" xml:space="preserve">
<circle style="fill:#324A5E;" cx="252.062" cy="252.062" r="252.062"/>
<g>
	<rect x="130.363" y="140.603" style="fill:#FFFFFF;" width="12.209" height="6.302"/>
	<rect x="130.363" y="156.751" style="fill:#FFFFFF;" width="12.209" height="6.302"/>
</g>
<rect x="130.363" y="173.292" style="fill:#F9B54C;" width="17.329" height="6.302"/>
<g>
	<rect x="130.363" y="189.44" style="fill:#FFFFFF;" width="12.209" height="6.302"/>
	<rect x="130.363" y="205.588" style="fill:#FFFFFF;" width="12.209" height="6.302"/>
</g>
<rect x="130.363" y="222.129" style="fill:#F9B54C;" width="17.329" height="6.302"/>
<g>
	<rect x="130.363" y="238.277" style="fill:#FFFFFF;" width="12.209" height="6.302"/>
	<rect x="130.363" y="254.818" style="fill:#FFFFFF;" width="12.209" height="6.302"/>
</g>
<rect x="130.363" y="270.966" style="fill:#F9B54C;" width="17.329" height="6.302"/>
<g>
	<rect x="130.363" y="287.114" style="fill:#FFFFFF;" width="12.209" height="6.302"/>
	<rect x="130.363" y="303.655" style="fill:#FFFFFF;" width="12.209" height="6.302"/>
</g>
<rect x="130.363" y="319.803" style="fill:#F9B54C;" width="17.329" height="6.302"/>
<g>
	<rect x="130.363" y="335.951" style="fill:#FFFFFF;" width="12.209" height="6.302"/>
	<rect x="130.363" y="352.492" style="fill:#FFFFFF;" width="12.209" height="6.302"/>
	<rect x="152.418" y="367.852" style="fill:#FFFFFF;" width="5.908" height="12.603"/>
	<rect x="168.172" y="367.852" style="fill:#FFFFFF;" width="5.908" height="12.603"/>
</g>
<rect x="183.926" y="362.338" style="fill:#F9B54C;" width="5.908" height="18.117"/>
<g>
	<rect x="199.68" y="367.852" style="fill:#FFFFFF;" width="5.908" height="12.603"/>
	<rect x="215.434" y="367.852" style="fill:#FFFFFF;" width="5.908" height="12.603"/>
</g>
<rect x="231.188" y="362.338" style="fill:#F9B54C;" width="5.908" height="18.117"/>
<g>
	<rect x="246.942" y="367.852" style="fill:#FFFFFF;" width="5.908" height="12.603"/>
	<rect x="262.695" y="367.852" style="fill:#FFFFFF;" width="5.908" height="12.603"/>
</g>
<rect x="278.449" y="362.338" style="fill:#F9B54C;" width="5.908" height="18.117"/>
<g>
	<rect x="294.203" y="367.852" style="fill:#FFFFFF;" width="5.908" height="12.603"/>
	<rect x="309.957" y="367.852" style="fill:#FFFFFF;" width="5.908" height="12.603"/>
</g>
<rect x="325.711" y="362.338" style="fill:#F9B54C;" width="5.908" height="18.117"/>
<g>
	<rect x="341.071" y="367.852" style="fill:#FFFFFF;" width="5.908" height="12.603"/>
	<rect x="356.825" y="367.852" style="fill:#FFFFFF;" width="5.908" height="12.603"/>
</g>
<polygon style="fill:#4CDBC4;" points="375.729,393.452 116.578,393.452 116.578,133.908 134.695,133.908 134.695,374.548 
	375.729,374.548 "/>
<polygon style="fill:#FFFFFF;" points="358.006,190.622 353.674,139.815 308.775,161.477 313.502,171.717 335.163,161.083 
	299.323,226.068 240.64,239.458 224.886,288.689 177.625,288.689 151.631,344.615 161.871,349.342 184.32,300.111 231.188,300.111 
	248.123,249.305 306.806,235.914 345.009,166.991 346.978,191.803 "/>
<path style="fill:#FF7058;" d="M183.926,275.692c-9.452,0-16.935,7.877-16.935,17.329s7.483,17.329,16.935,17.329
	c9.452,0,16.935-7.877,16.935-17.329S193.378,275.692,183.926,275.692z"/>
<path style="fill:#ACB3BA;" d="M229.612,275.692c-9.452,0-16.935,7.877-16.935,17.329s7.483,17.329,16.935,17.329
	c9.452,0,16.935-7.877,16.935-17.329S239.065,275.692,229.612,275.692z"/>
<path style="fill:#84DBFF;" d="M246.548,226.855c-9.452,0-16.935,7.877-16.935,17.329c0,9.846,7.483,17.329,16.935,17.329
	c9.452,0,16.935-7.877,16.935-17.329S256,226.855,246.548,226.855z"/>
<path style="fill:#F9B54C;" d="M303.262,211.889c-9.452,0-16.935,7.877-16.935,17.329s7.483,17.329,16.935,17.329
	c9.452,0,16.935-7.877,16.935-17.329S312.32,211.889,303.262,211.889z"/>
</svg>