<?xml version="1.0" encoding="iso-8859-1"?>
<!-- Uploaded to: SVG Repo, www.svgrepo.com, Generator: SVG Repo Mixer Tools -->
<svg fill="#000000" height="800px" width="800px" version="1.1" id="Layer_1" xmlns="http://www.w3.org/2000/svg" xmlns:xlink="http://www.w3.org/1999/xlink" 
	 viewBox="0 0 491.52 491.52" xml:space="preserve">
<g>
	<g>
		<path d="M491.52,143.36V81.92C491.52,25.641,374.743,0,266.24,0S40.96,25.641,40.96,81.92v61.44
			c0,10.179,2.99,19.558,7.987,28.283C16.609,185.569,0,203.51,0,225.28v61.44c0,24.433,15.749,44.667,40.96,60.58v41.82
			c0,66.519,116.06,102.4,225.28,102.4s225.28-35.881,225.28-102.4v-61.44c0-19.763-13.804-36.536-40.96-50.012V225.28
			c0-5.222-1.126-11.653-4.669-18.555C473.805,190.423,491.52,169.247,491.52,143.36z M409.6,285.286l-0.369,2.97
			c-2.642,21.873-57.651,51.323-144.65,58.348c-1.106,0.082-2.273,0.123-3.379,0.205c-5.141,0.389-10.322,0.737-15.688,0.942
			c-6.595,0.266-13.332,0.41-20.234,0.41c-59.228,0-115.978-10.936-151.859-29.245l-6.144-3.133
			C50.299,306.094,40.96,295.69,40.96,286.72v-11.633c0.246,0.123,0.573,0.225,0.819,0.369c4.997,2.458,10.322,4.772,15.995,6.922
			c1.393,0.553,2.929,1.024,4.362,1.536c4.444,1.597,9.032,3.133,13.804,4.567c2.13,0.635,4.321,1.229,6.513,1.843
			c4.506,1.229,9.114,2.396,13.824,3.502c2.212,0.512,4.403,1.044,6.656,1.516c5.837,1.249,11.817,2.396,17.92,3.441
			c1.167,0.205,2.253,0.43,3.42,0.635c7.291,1.188,14.746,2.232,22.303,3.133c2.212,0.266,4.444,0.492,6.656,0.737
			c5.53,0.594,11.059,1.147,16.671,1.597c2.662,0.225,5.325,0.43,8.008,0.614c5.509,0.369,11.018,0.696,16.548,0.942
			c2.437,0.102,4.854,0.225,7.291,0.328c7.864,0.266,15.708,0.43,23.531,0.43s15.667-0.164,23.532-0.43
			c2.437-0.102,4.854-0.225,7.291-0.328c5.53-0.246,11.039-0.573,16.548-0.942c2.683-0.184,5.345-0.389,8.008-0.614
			c5.612-0.451,11.141-1.003,16.671-1.597c2.212-0.246,4.444-0.471,6.656-0.737c7.557-0.901,15.012-1.946,22.303-3.133
			c1.167-0.205,2.253-0.43,3.42-0.635c6.103-1.044,12.083-2.191,17.92-3.441c2.253-0.471,4.444-1.004,6.656-1.516
			c4.71-1.106,9.318-2.273,13.824-3.502c2.191-0.614,4.362-1.208,6.513-1.843c4.772-1.434,9.359-2.97,13.804-4.567
			c1.434-0.512,2.97-0.983,4.362-1.536c5.673-2.15,10.998-4.465,15.995-6.922c0.246-0.143,0.553-0.246,0.819-0.369V285.286z
			 M450.56,143.36c0,10.936-13.701,24.023-38.482,35.328l-7.148,2.929C368.968,196.342,318.423,204.8,266.24,204.8
			c-8.438,0-16.773-0.266-25.027-0.676c-1.29-0.082-2.56-0.164-3.85-0.246c-7.864-0.471-15.667-1.085-23.265-1.925h-0.123
			c-50.319-5.591-93.614-19.026-117.187-37.315l-4.301-3.338c-6.799-6.185-10.568-12.349-10.568-17.94v-11.633
			c0.246,0.123,0.573,0.225,0.819,0.369c4.997,2.458,10.322,4.772,15.995,6.922c1.393,0.553,2.929,1.024,4.362,1.536
			c4.444,1.597,9.032,3.133,13.804,4.567c2.13,0.635,4.321,1.229,6.513,1.843c4.506,1.229,9.114,2.396,13.824,3.502
			c2.212,0.512,4.403,1.044,6.656,1.516c5.837,1.249,11.817,2.396,17.92,3.441c1.167,0.205,2.253,0.43,3.42,0.635
			c7.291,1.188,14.746,2.232,22.303,3.133c2.212,0.266,4.444,0.492,6.656,0.737c5.53,0.594,11.059,1.147,16.671,1.597
			c2.662,0.225,5.325,0.43,8.008,0.614c5.509,0.369,11.018,0.696,16.548,0.942c2.437,0.102,4.854,0.225,7.291,0.328
			c7.864,0.266,15.708,0.43,23.532,0.43s15.667-0.164,23.531-0.43c2.437-0.102,4.854-0.225,7.291-0.328
			c5.53-0.246,11.039-0.573,16.548-0.942c2.683-0.184,5.345-0.389,8.008-0.614c5.612-0.451,11.141-1.003,16.671-1.597
			c2.212-0.246,4.444-0.471,6.656-0.737c7.557-0.901,15.012-1.946,22.303-3.133c1.167-0.205,2.253-0.43,3.42-0.635
			c6.103-1.044,12.083-2.191,17.92-3.441c2.253-0.471,4.444-1.004,6.656-1.516c4.71-1.106,9.318-2.273,13.824-3.502
			c2.191-0.614,4.362-1.208,6.513-1.843c4.772-1.434,9.359-2.97,13.804-4.567c1.434-0.512,2.97-0.983,4.362-1.536
			c5.673-2.15,10.998-4.465,15.995-6.922c0.246-0.143,0.553-0.246,0.819-0.369V143.36z"/>
	</g>
</g>
</svg>