<?xml version="1.0" encoding="utf-8"?><!-- Uploaded to: SVG Repo, www.svgrepo.com, Generator: SVG Repo Mixer Tools -->
<svg fill="#000000" width="800px" height="800px" viewBox="0 0 24 24" id="contract-right" data-name="Flat Color" xmlns="http://www.w3.org/2000/svg" class="icon flat-color"><rect id="primary" x="2" y="2" width="16" height="20" rx="2" style="fill: rgb(0, 0, 0);"></rect><path id="secondary" d="M4,17a1,1,0,0,1,1-1H9a1,1,0,0,1,0,2H5A1,1,0,0,1,4,17ZM18.91,5.3l-6.62,6.61a1,1,0,0,0-.29.71V14a1,1,0,0,0,1,1h1.39a1,1,0,0,0,.71-.3L21.71,8.1a1,1,0,0,0,0-1.4l-1.4-1.4A1,1,0,0,0,18.91,5.3Z" style="fill: rgb(44, 169, 188);"></path></svg>