<?xml version="1.0" encoding="utf-8"?><!-- Uploaded to: SVG Repo, www.svgrepo.com, Generator: SVG Repo Mixer Tools -->
<svg width="800px" height="800px" viewBox="0 0 64 64" xmlns="http://www.w3.org/2000/svg"><path d="m48.3 19c-.28 0-.44.62-.44.62s2.1 2.19 2.35 2.35.28-.22.31-.44a9.57 9.57 0 0 0 -2.22-2.53zm-1.06 2.09c-.13.13-.66.5-.57.63s3.16 2.81 3.29 2.84.21-.13.25-.44a13.81 13.81 0 0 0 -2.97-3.07zm-1.24 14.05c-3.32.69-4.28 2.82-4.5 4.66s.59 4.19 3.06 3.84 5-1.9 4.87-4.34-1.43-4.58-3.43-4.16zm.59 7c-1.53.81-3.06.93-3.78-.16a4.31 4.31 0 0 1 3.19-5.9c1.2-.26 2.59.66 2.71 2.6s-.6 2.68-2.13 3.5zm-7.56 7c-3.94.84-3.22 4.25-1.53 4.5a2.85 2.85 0 0 0 3.43-2.35 1.73 1.73 0 0 0 -1.93-2.11zm1 2.75c-.63 1.06-2.16 1.43-2.69.68s-.38-2.15 1.59-2.65c1.07-.24 1.68.94 1.07 2.01zm14.11-26.43c-.65-1.13.22-2.5.22-3.66s-1.53-4-7.9-8.66-10.46-7.31-14.41-7.06a23.79 23.79 0 0 0 -9.16 2.25 38 38 0 0 0 -10.34 8.38c-2.91 3.4-6.13 8.29-5.94 13.75s1.44 11.54 3.69 14.97a36.18 36.18 0 0 0 11 10.31c4 2.12 9.78 2.47 14.25 2s8.34-1.38 11.53-3.84 4.1-4.6 6.28-9.16 4.1-9 4-12.59-2.56-5.57-3.22-6.69zm-29.14 29.54a18.37 18.37 0 0 1 -3.13-1.34c-1.22-.6-2.22-1.54-2-1.54a5.8 5.8 0 0 1 3.47.5c1.27.87 1.99 2.38 1.66 2.38zm27-23.11c.22.16 3 2.07 3 2.41a8.1 8.1 0 0 1 -.28 1.75c-.1.09-3.41-2.16-3.53-2.16s-.63.35-.44.66 3.72 2.19 3.72 2.47a4.83 4.83 0 0 1 -.6 1.62 30.22 30.22 0 0 0 -3.21-2.34c-.19.13-.5.59-.38.75s3.41 2.19 3.34 2.41-.56 1.34-.56 1.34a30.74 30.74 0 0 0 -2.65-2.12c-.16 0-.5.65-.38.81a23.23 23.23 0 0 1 2.63 2c0 .25-2.13 4.53-3.13 6.56a13.22 13.22 0 0 1 -5.12 5.28c-2.19 1.25-4.25 2-8.57 2.32a37.87 37.87 0 0 1 -8.15-.25 9.77 9.77 0 0 1 -1.5-.25s-1.38-3.47-3.32-3.75a22.79 22.79 0 0 0 -4.34-.1 33.41 33.41 0 0 1 -5.5-5.4c-2-2.72-4.12-9.1-4.31-12.25a20.53 20.53 0 0 1 2.75-12.19 29.26 29.26 0 0 1 20.11-13.85c3.64-.67 6.91 2.1 11.25 5s9.41 8.47 9.34 9.13-1.09 2.26-.17 3.78 2.68 3.56 2.93 5.12a14.38 14.38 0 0 1 .19 2.72s-2.69-2.12-2.78-2.09-.54.47-.34.62zm-32.45 9.94a28.17 28.17 0 0 0 2.81 3.78c.19.13.25-.09.38-.22s-2.41-3.75-2.41-4a4.08 4.08 0 0 0 -.78.44zm-1.28.44c-.22-.06-.63.28-.69.41a25 25 0 0 0 3.25 3.87c.31 0 .19-.06.28-.28a22.6 22.6 0 0 0 -2.84-4zm-1.41 1.37c-.28 0-.75.32-.75.54a20 20 0 0 0 2.69 3.09.61.61 0 0 0 .53-.25c.19-.22-2.2-3.38-2.47-3.38zm13-3.53a1.91 1.91 0 0 0 -1.06 3.35c1.06.9 2.81.93 3.34-.75a2 2 0 0 0 -2.25-2.6zm1.56 2.36a1.24 1.24 0 0 1 -2.1.47 1.2 1.2 0 0 1 .67-2.1 1.25 1.25 0 0 1 1.46 1.63zm-12.81-7.47c-.69-1.28-2.47-1.21-3.22-.94-.93.34-1.65 2.12-1.68 3.16a1.77 1.77 0 0 0 2.29 1.49c1.24-.25 3.3-2.47 2.61-3.71zm-2.52 3a1.2 1.2 0 0 1 -1.56-1c0-.69.5-1.89 1.14-2.12a1.82 1.82 0 0 1 2.16.63c.47.75-.92 2.24-1.74 2.41zm10.37-16.92c-1.72.22-5.25 1.06-5.6 4.38s1.19 6.25 5.75 6.65 7-3.12 6.25-7-3.72-4.37-6.4-4.03zm.25 9.21c-3.07-.27-4.09-2.24-3.86-4.47s2.6-2.79 3.75-2.94c1.8-.22 3.82.11 4.3 2.71s-1.13 4.97-4.19 4.7zm-12.79-2.11c.22 0 .19-.6.94-3.16a6.78 6.78 0 0 1 2.91-3.69c.12-.19-.66-.67-.78-.62-.88.31-2.32 2.53-2.85 3.87a23.31 23.31 0 0 0 -1 3.44c.03.09.57.19.78.16zm25.16-11.07c-2.41.6-3.08 2.89-2.08 4.13s4.12 1.53 4.53-.78-1.11-3.68-2.45-3.35zm1.58 3.05c-.26 1.48-2.24 1.3-2.9.5s-.22-2.26 1.32-2.66c.86-.2 1.84.68 1.58 2.16z" fill="#1d1d1b"/></svg>